<?xml version="1.0" standalone="no"?>
<!DOCTYPE svg PUBLIC "-//W3C//DTD SVG 1.1//EN" "http://www.w3.org/Graphics/SVG/1.1/DTD/svg11.dtd" >
<svg xmlns="http://www.w3.org/2000/svg">
<metadata></metadata>
<defs>
<font id="bankgothic_lt_btlight" horiz-adv-x="1024" >
<font-face units-per-em="2048" ascent="1638" descent="-410" />
<missing-glyph horiz-adv-x="766" />
<glyph horiz-adv-x="2048" />
<glyph horiz-adv-x="2048" />
<glyph unicode="&#xd;" horiz-adv-x="766" />
<glyph unicode=" "  horiz-adv-x="766" />
<glyph unicode="&#x09;" horiz-adv-x="766" />
<glyph unicode="&#xa0;" horiz-adv-x="766" />
<glyph unicode="!" horiz-adv-x="840" d="M307 53v117q0 34 9.5 44.5t52.5 10.5h102q42 0 50.5 -10t8.5 -45v-117q0 -35 -7.5 -44t-51.5 -9h-123q-25 0 -33 9.5t-8 43.5zM307 1057h225l-55 -627h-117z" />
<glyph unicode="&#x22;" horiz-adv-x="569" d="M98 881v553h101v-553h-101zM371 881v553h102v-553h-102z" />
<glyph unicode="#" horiz-adv-x="1575" d="M117 479l39 109h325l101 276h-353l35 107h354l173 483h127l-168 -483h264l172 483h127l-170 -483h315l-37 -107h-317l-98 -276h340l-37 -109h-340l-170 -479h-129l172 479h-269l-172 -479h-127l170 479h-327zM612 588h267l96 276h-266z" />
<glyph unicode="$" horiz-adv-x="1532" d="M233 221v45l173 35v-174h337v330h-223q-142 0 -195 53t-53 199v98q0 145 52 197.5t196 52.5h223v209h123v-209h217q136 0 192 -48t56 -159v-47l-160 -39v164h-305v-322h236q145 0 195.5 -52t50.5 -198v-106q0 -145 -51 -197.5t-195 -52.5h-236v-266h-123v266h-262 q-139 0 -193.5 49.5t-54.5 171.5zM434 606h309v322h-309v-322zM866 127h320v330h-320v-330z" />
<glyph unicode="%" horiz-adv-x="1765" d="M150 778q0 132 90 222t223 90q132 0 223.5 -90.5t91.5 -221.5q0 -127 -94.5 -221t-220.5 -94t-219.5 94t-93.5 221zM266 776q0 -80 59 -138t140 -58q82 0 139.5 57t57.5 139t-58 140.5t-139 58.5q-82 0 -140.5 -58.5t-58.5 -140.5zM373 -33l889 1123h120l-893 -1123h-116 zM987 283q0 131 90.5 221t222.5 90q133 0 224.5 -90.5t91.5 -220.5q0 -127 -94.5 -221.5t-221.5 -94.5q-126 0 -219.5 94t-93.5 222zM1104 281q0 -81 58 -139t138 -58q84 0 141.5 57t57.5 140q0 81 -58.5 138.5t-140.5 57.5q-81 0 -138.5 -57.5t-57.5 -138.5z" />
<glyph unicode="&#x26;" horiz-adv-x="1581" d="M166 250v69q0 70 23 109.5t100 87.5l203 129q-46 41 -66 78.5t-20 81.5v59q0 105 55 149t192 44h199q143 0 194.5 -46t51.5 -167v-56l-140 -26v166h-403v-154l512 -420l246 232l90 -86l-238 -226l336 -274h-219l-217 178l-119 -115q-40 -37 -75.5 -50t-110.5 -13h-346 q-145 0 -196.5 53t-51.5 197zM315 135h512l138 127l-379 303l-271 -192v-238z" />
<glyph unicode="'" horiz-adv-x="295" d="M98 881v553h101v-553h-101z" />
<glyph unicode="(" horiz-adv-x="758" d="M213 528q0 148 44 290.5t132 279.5h164q-99 -140 -147 -279.5t-48 -290.5q0 -148 49 -290.5t146 -278.5h-164q-88 137 -132 279.5t-44 289.5z" />
<glyph unicode=")" horiz-adv-x="758" d="M205 -41q97 136 145.5 278.5t48.5 290.5q0 151 -47.5 290.5t-146.5 279.5h164q88 -137 132 -279.5t44 -290.5q0 -147 -44 -289.5t-132 -279.5h-164z" />
<glyph unicode="*" d="M178 770l41 121l260 -123l-30 289h126l-28 -287l256 121l39 -121l-269 -65l193 -205l-109 -80l-141 244l-151 -244l-101 80l197 202z" />
<glyph unicode="+" horiz-adv-x="1706" d="M254 561v98h551v562h98v-562h549v-98h-549v-561h-98v561h-551z" />
<glyph unicode="," horiz-adv-x="766" d="M262 -205l121 225h-70q-25 0 -34 11.5t-9 44.5v94q0 35 9 45t53 10h102q44 0 53 -10.5t9 -44.5v-156l-144 -219h-90z" />
<glyph unicode="-" horiz-adv-x="676" d="M115 471v150h446v-150h-446z" />
<glyph unicode="." horiz-adv-x="766" d="M270 53v117q0 34 9.5 44.5t52.5 10.5h102q43 0 52.5 -10.5t9.5 -44.5v-117q0 -34 -8.5 -43.5t-53.5 -9.5h-123q-24 0 -32.5 9.5t-8.5 43.5z" />
<glyph unicode="/" horiz-adv-x="717" d="M41 -33l530 1123h105l-535 -1123h-100z" />
<glyph unicode="0" horiz-adv-x="1532" d="M203 250v557q0 145 47.5 197.5t179.5 52.5h672q131 0 179 -52.5t48 -197.5v-557q0 -145 -48 -197.5t-179 -52.5h-672q-132 0 -179.5 52t-47.5 198zM373 145h786v770h-786v-770z" />
<glyph unicode="1" horiz-adv-x="1532" d="M489 891v106l392 68v-1065h-162v891h-230z" />
<glyph unicode="2" horiz-adv-x="1532" d="M262 0v66q0 73 28.5 111.5t94.5 80.5l717 451v206h-623v-247l-168 45v137q0 119 46.5 163t181.5 44h510q134 0 180.5 -44t46.5 -163v-66q0 -78 -25 -121t-106 -94l-684 -424h694v201l168 -55v-84q0 -119 -47 -163t-182 -44h-832z" />
<glyph unicode="3" horiz-adv-x="1532" d="M260 207v86l168 39v-187h610q58 0 76.5 18.5t18.5 76.5v141q0 59 -19 77.5t-76 18.5h-374v135h335q57 0 76 23t19 98v62q0 74 -19 97t-76 23h-565v-163l-160 32v66q0 119 46.5 163t181.5 44h536q135 0 181.5 -44t46.5 -163v-96q0 -91 -36.5 -136t-123.5 -65 q106 -16 152.5 -66.5t46.5 -148.5v-111q0 -130 -53.5 -178.5t-188.5 -48.5h-576q-134 0 -180.5 43.5t-46.5 163.5z" />
<glyph unicode="4" horiz-adv-x="1532" d="M199 252v131l762 686h200v-686h242v-131h-242v-252h-162v252h-800zM385 383h614v559z" />
<glyph unicode="5" horiz-adv-x="1532" d="M289 203q144 -34 280 -51t254 -17q192 0 275.5 48.5t83.5 158.5q0 114 -88 165.5t-283 51.5q-119 0 -248 -16t-272 -49l55 563h856l-12 -142h-711l-37 -256q99 22 196.5 32.5t195.5 10.5q270 0 400 -88.5t130 -273.5q0 -189 -133 -272.5t-438 -83.5q-98 0 -206 11.5 t-247 37.5z" />
<glyph unicode="6" horiz-adv-x="1532" d="M238 326v139q0 295 191 456.5t540 161.5q14 0 29.5 -0.5t41.5 -3.5l108 -139q-11 1 -25.5 1.5t-39.5 0.5q-311 0 -472.5 -77t-184.5 -236q114 22 231 33.5t238 11.5q246 0 337 -59.5t91 -213.5v-143q0 -133 -82.5 -195.5t-257.5 -62.5h-420q-187 0 -256 69.5t-69 256.5z M403 434q0 -212 34.5 -252.5t189.5 -40.5h321q122 0 163.5 34t41.5 130v68q0 96 -52 130t-198 34q-134 0 -258 -10t-235 -29q-3 -20 -5 -36t-2 -28z" />
<glyph unicode="7" horiz-adv-x="1532" d="M254 698v359h1102v-137l-582 -938h-205l613 933h-770v-247z" />
<glyph unicode="8" horiz-adv-x="1532" d="M207 227v111q0 96 45.5 146t146.5 65q-88 12 -129 61t-41 144v96q0 119 46.5 163t181.5 44h618q135 0 181.5 -44t46.5 -163v-96q0 -94 -41.5 -143.5t-131.5 -61.5q103 -15 149 -65t46 -146v-111q0 -129 -53.5 -178t-190.5 -49h-632q-136 0 -189 48.5t-53 178.5zM377 252 q0 -65 21.5 -87t84.5 -22h566q63 0 84.5 22t21.5 87v115q0 65 -21.5 86.5t-84.5 21.5h-566q-62 0 -84 -22t-22 -86v-115zM397 723q0 -68 22 -89.5t85 -21.5h524q64 0 85.5 22t21.5 89v82q0 68 -22 89t-85 21h-524q-61 0 -84 -21.5t-23 -88.5v-82z" />
<glyph unicode="9" horiz-adv-x="1532" d="M209 657v142q0 132 82.5 195t257.5 63h418q188 0 257.5 -69.5t69.5 -256.5v-139q0 -295 -191 -456t-540 -161q-30 0 -44.5 0.5t-27.5 2.5l-108 141q4 -1 11 -1q36 -3 52 -3q312 0 474.5 77t185.5 236q-114 -22 -232 -33.5t-239 -11.5q-244 0 -335 60t-91 214zM377 684 q0 -96 52 -130t198 -34q134 0 258 10t235 29q3 19 4.5 36t1.5 30q0 213 -33 251.5t-188 38.5h-321q-123 0 -165 -33.5t-42 -129.5v-68z" />
<glyph unicode=":" horiz-adv-x="766" d="M270 53v117q0 34 9.5 44.5t52.5 10.5h102q43 0 52.5 -10.5t9.5 -44.5v-117q0 -34 -8.5 -43.5t-53.5 -9.5h-123q-24 0 -32.5 9.5t-8.5 43.5zM270 696v117q0 34 9.5 44.5t52.5 10.5h102q43 0 52.5 -10.5t9.5 -44.5v-117q0 -34 -8.5 -43.5t-53.5 -9.5h-123q-24 0 -32.5 9.5 t-8.5 43.5z" />
<glyph unicode=";" horiz-adv-x="766" d="M262 -205l121 225h-70q-25 0 -34 11.5t-9 44.5v94q0 35 9 45t53 10h102q44 0 53 -10.5t9 -44.5v-156l-144 -219h-90zM270 696v117q0 34 9.5 44.5t52.5 10.5h102q43 0 52.5 -10.5t9.5 -44.5v-117q0 -34 -8.5 -43.5t-53.5 -9.5h-123q-24 0 -32.5 9.5t-8.5 43.5z" />
<glyph unicode="&#x3c;" horiz-adv-x="1706" d="M264 569v82l1178 484v-109l-1022 -416l1022 -413v-109z" />
<glyph unicode="=" horiz-adv-x="1706" d="M254 375v98h1198v-98h-1198zM254 748v98h1198v-98h-1198z" />
<glyph unicode="&#x3e;" horiz-adv-x="1706" d="M264 88v109l1022 413l-1022 416v109l1178 -484v-82z" />
<glyph unicode="?" horiz-adv-x="1327" d="M231 782v58q0 109 52.5 163t156.5 54h391q121 0 179.5 -48.5t58.5 -148.5v-184l-369 -189v-59h-133v147l353 177v170h-543v-166zM518 53v117q0 34 9.5 44.5t52.5 10.5h102q43 0 52 -10.5t9 -44.5v-117q0 -34 -8 -43.5t-53 -9.5h-123q-25 0 -33 9.5t-8 43.5z" />
<glyph unicode="@" horiz-adv-x="2048" d="M117 537q0 204 86 381.5t252 314.5q132 109 298.5 165t360.5 56q162 0 308 -44t249 -124q129 -99 194.5 -228t65.5 -280q0 -171 -62 -309.5t-181 -232.5q-70 -54 -149 -82.5t-161 -28.5q-97 0 -144.5 37.5t-47.5 113.5q0 4 1 14t1 15q-51 -87 -127 -133.5t-168 -46.5 q-153 0 -233 83.5t-80 244.5q0 230 135 388t329 158q94 0 158 -41t96 -122l60 125h94l-139 -562q-10 -44 -13.5 -62.5t-3.5 -29.5q0 -43 28.5 -67.5t78.5 -24.5q52 0 106.5 21t104.5 61q97 77 151 204.5t54 282.5q0 254 -198 417t-509 163q-175 0 -320 -49.5t-262 -149.5 q-147 -126 -222 -290.5t-75 -362.5q0 -174 60 -305t184 -232q102 -82 244 -128t301 -46q171 0 334.5 49.5t300.5 143.5l39 -55q-147 -111 -311 -166.5t-343 -55.5q-191 0 -347 46.5t-275 138.5q-155 118 -229 273.5t-74 361.5zM702 444q0 -111 55 -173t152 -62 q107 0 189.5 71.5t111.5 188.5l62 248q-18 93 -75.5 145.5t-139.5 52.5q-154 0 -254.5 -133.5t-100.5 -337.5z" />
<glyph unicode="A" horiz-adv-x="1489" d="M68 0l577 1057h189l587 -1057h-194l-135 260h-715l-135 -260h-174zM451 395h569l-285 541z" />
<glyph unicode="B" horiz-adv-x="1569" d="M274 0v1057h852q119 0 171.5 -48.5t52.5 -156.5v-123q0 -85 -42.5 -127t-133.5 -53q89 -11 135.5 -63.5t46.5 -143.5v-135q0 -105 -72.5 -156t-220.5 -51h-789zM451 145h610q67 0 92 27t25 98v88q0 72 -25.5 99.5t-91.5 27.5h-610v-340zM451 623h610q61 0 84.5 21 t23.5 73v106q0 52 -22.5 72t-85.5 20h-610v-292z" />
<glyph unicode="C" horiz-adv-x="1536" d="M260 250v557q0 145 52 197.5t196 52.5h592q144 0 195 -52t51 -198v-100l-177 -33v239h-733v-766h733v265l177 -37v-125q0 -146 -51 -198t-195 -52h-592q-144 0 -196 52.5t-52 197.5z" />
<glyph unicode="D" horiz-adv-x="1655" d="M274 0v1057h582q146 0 242.5 -19.5t163.5 -62.5q102 -67 160.5 -184t58.5 -256q0 -148 -57.5 -266.5t-161.5 -186.5q-65 -42 -162 -62t-244 -20h-582zM451 147h380q257 0 363 90t106 298q0 201 -108 289.5t-361 88.5h-380v-766z" />
<glyph unicode="E" horiz-adv-x="1446" d="M274 0v1057h1018v-142h-841v-294h514v-140h-514v-336h849v-145h-1026z" />
<glyph unicode="F" horiz-adv-x="1305" d="M274 0v1057h1006v-144h-829v-346h473v-141h-473v-426h-177z" />
<glyph unicode="G" horiz-adv-x="1673" d="M260 250v557q0 144 51.5 197t196.5 53h684q142 0 195 -51.5t53 -186.5v-26l-176 -35v155h-828v-766h828v310h-428v135h604v-342q0 -145 -52 -197.5t-196 -52.5h-684q-145 0 -196.5 53t-51.5 197z" />
<glyph unicode="H" horiz-adv-x="1735" d="M274 0v1057h177v-432h833v432h176v-1057h-176v479h-833v-479h-177z" />
<glyph unicode="I" horiz-adv-x="725" d="M274 0v1057h177v-1057h-177z" />
<glyph unicode="J" horiz-adv-x="1384" d="M207 250v211l174 37v-351h567v910h176v-807q0 -145 -51.5 -197.5t-195.5 -52.5h-424q-144 0 -195 52t-51 198z" />
<glyph unicode="K" horiz-adv-x="1493" d="M274 0v1057h177v-453l659 453h258l-766 -506l850 -551h-295l-706 475v-475h-177z" />
<glyph unicode="L" horiz-adv-x="1337" d="M274 0v1057h177v-910h800v-147h-977z" />
<glyph unicode="M" horiz-adv-x="1849" d="M274 0v1057h144l514 -688l479 688h162v-1057h-162v713q0 14 3.5 70.5t4.5 84.5q-20 -41 -35.5 -69t-27.5 -45l-404 -588h-45l-420 572q-1 1 -5 7q-46 63 -66 123q4 -31 6 -65t2 -90v-713h-150z" />
<glyph unicode="N" horiz-adv-x="1716" d="M274 0v1057h111l791 -707q27 -24 57.5 -58t62.5 -75q-8 51 -12 106.5t-4 153.5v580h162v-1057h-99l-812 735q-6 5 -18 16q-60 54 -89 103q6 -48 9 -102.5t3 -128.5v-623h-162z" />
<glyph unicode="O" horiz-adv-x="1747" d="M260 250v557q0 144 51.5 197t196.5 53h731q143 0 194.5 -52.5t51.5 -197.5v-557q0 -146 -51.5 -198t-194.5 -52h-731q-145 0 -196.5 53t-51.5 197zM436 147h875v766h-875v-766z" />
<glyph unicode="P" horiz-adv-x="1507" d="M274 0v1057h852q119 0 171.5 -48.5t52.5 -156.5v-236q0 -107 -52.5 -155.5t-171.5 -48.5h-675v-412h-177zM451 551h606q65 0 89.5 25t24.5 86v147q0 61 -24.5 86t-89.5 25h-606v-369z" />
<glyph unicode="Q" horiz-adv-x="1747" d="M260 250v557q0 144 51.5 197t196.5 53h731q143 0 194.5 -52.5t51.5 -197.5v-557q0 -146 -51.5 -198t-194.5 -52h-121l125 -258h-168l-112 258h-455q-145 0 -196.5 53t-51.5 197zM436 147h459l-109 244l119 47l144 -291h262v766h-875v-766z" />
<glyph unicode="R" horiz-adv-x="1561" d="M274 0v1057h852q119 0 171.5 -48.5t52.5 -156.5v-236q0 -107 -52.5 -155.5t-171.5 -48.5h-155l483 -412h-262l-430 412h-311v-412h-177zM451 549h606q66 0 90 24t24 84v154q0 60 -24.5 84.5t-89.5 24.5h-606v-371z" />
<glyph unicode="S" horiz-adv-x="1599" d="M229 250v29l164 38v-170h787v318h-664q-144 0 -195 52.5t-51 197.5v92q0 145 51 197.5t195 52.5h563q141 0 194.5 -51.5t53.5 -180.5v-22l-151 -43v153h-748v-295h666q141 0 193 -52t52 -197v-119q0 -146 -51 -198t-194 -52h-617q-144 0 -196 52.5t-52 197.5z" />
<glyph unicode="T" horiz-adv-x="1192" d="M25 913v144h1144v-144h-485v-913h-176v913h-483z" />
<glyph unicode="U" horiz-adv-x="1671" d="M274 250v807h177v-910h770v910h174v-807q0 -146 -51.5 -198t-194.5 -52h-627q-144 0 -196 53t-52 197z" />
<glyph unicode="V" horiz-adv-x="1413" d="M68 1057h190l467 -881l446 881h175l-553 -1057h-148z" />
<glyph unicode="W" horiz-adv-x="1763" d="M66 1057h178l286 -840l312 840h108l301 -840l289 840h158l-383 -1057h-131l-293 799l-303 -799h-139z" />
<glyph unicode="X" horiz-adv-x="1460" d="M115 1057h254l370 -400l348 400h220l-465 -496l567 -561h-254l-420 451l-389 -451h-223l512 545z" />
<glyph unicode="Y" horiz-adv-x="1374" d="M66 1057h219l413 -471l396 471h215l-531 -592v-465h-176v461z" />
<glyph unicode="Z" horiz-adv-x="1395" d="M135 0v72l783 841h-715v144h997v-60l-797 -850h797v-147h-1065z" />
<glyph unicode="[" horiz-adv-x="758" d="M227 -33v1123h402v-113h-256v-897h256v-113h-402z" />
<glyph unicode="\" horiz-adv-x="717" d="M41 1090h102l533 -1123h-103z" />
<glyph unicode="]" horiz-adv-x="758" d="M131 -33v113h254v897h-254v113h399v-1123h-399z" />
<glyph unicode="^" horiz-adv-x="2048" d="M422 901l532 557h140l530 -557h-143l-457 455l-459 -455h-143z" />
<glyph unicode="_" d="M0 -383h1024v-100h-1024v100z" />
<glyph unicode="`" d="M262 1327h178l209 -348h-106z" />
<glyph unicode="a" horiz-adv-x="1284" d="M59 0l502 868h150l514 -868h-178l-113 203h-600l-111 -203h-164zM403 328h461l-231 413z" />
<glyph unicode="b" horiz-adv-x="1294" d="M201 0v868h733q100 0 145 -40.5t45 -129.5v-100q0 -69 -36 -104.5t-115 -44.5q77 -8 117 -51.5t40 -116.5v-111q0 -86 -62 -128t-189 -42h-678zM365 127h503q56 0 77.5 21.5t21.5 76.5v68q0 54 -22 76t-77 22h-503v-264zM365 518h503q57 0 75 15t18 55v82q0 40 -20 55.5 t-73 15.5h-503v-223z" />
<glyph unicode="c" horiz-adv-x="1262" d="M180 205v457q0 121 44 163.5t167 42.5h510q124 0 168.5 -43.5t44.5 -162.5v-82l-164 -27v186h-606v-608h606v207l164 -31v-102q0 -119 -44.5 -162t-168.5 -43h-510q-124 0 -167.5 41.5t-43.5 163.5z" />
<glyph unicode="d" horiz-adv-x="1493" d="M268 0v868h500q124 0 208.5 -16.5t139.5 -50.5q89 -56 139 -152.5t50 -212.5q0 -219 -133 -327.5t-404 -108.5h-500zM432 131h318q212 0 301.5 71.5t89.5 235.5q0 160 -90.5 230.5t-300.5 70.5h-318v-608z" />
<glyph unicode="e" horiz-adv-x="1190" d="M201 0v868h874v-129h-710v-223h428v-129h-428v-260h718v-127h-882z" />
<glyph unicode="f" horiz-adv-x="1112" d="M201 0v868h864v-129h-700v-268h395v-127h-395v-344h-164z" />
<glyph unicode="g" horiz-adv-x="1356" d="M180 205v457q0 119 45 162.5t168 43.5h588q121 0 167 -43t46 -151v-25l-164 -28v118h-686v-608h686v236h-354v118h518v-280q0 -119 -44.5 -162t-168.5 -43h-588q-124 0 -168.5 42.5t-44.5 162.5z" />
<glyph unicode="h" horiz-adv-x="1421" d="M201 0v866h164v-348h692v348h164v-866h-164v387h-692v-387h-164z" />
<glyph unicode="i" horiz-adv-x="557" d="M197 0v866h163v-866h-163z" />
<glyph unicode="j" horiz-adv-x="1143" d="M152 205v168l163 33v-275h461v737h164v-663q0 -119 -44.5 -162t-168.5 -43h-362q-125 0 -169 43t-44 162z" />
<glyph unicode="k" horiz-adv-x="1237" d="M201 0v868h164v-372l548 372h228l-641 -419l712 -449h-268l-579 389v-389h-164z" />
<glyph unicode="l" horiz-adv-x="1096" d="M201 0v868h164v-737h675v-131h-839z" />
<glyph unicode="m" horiz-adv-x="1520" d="M201 0v868h135l432 -563l397 563h152v-868h-152v586q0 32 2.5 62t7.5 58q-14 -41 -29 -72.5t-28 -47.5l-334 -449h-43l-346 445q-18 23 -34 54t-29 71q0 -19 2 -52q2 -54 2 -69v-586h-135z" />
<glyph unicode="n" horiz-adv-x="1405" d="M201 0v868h125l637 -567q28 -24 53.5 -53t50.5 -66q-7 39 -10.5 79t-3.5 83v524h151v-868h-112l-650 575q-34 32 -58.5 60.5t-43.5 58.5q6 -38 9 -77t3 -78v-539h-151z" />
<glyph unicode="o" horiz-adv-x="1413" d="M180 205v457q0 119 45 162.5t168 43.5h627q123 0 168 -43.5t45 -162.5v-457q0 -119 -44.5 -162t-168.5 -43h-627q-125 0 -169 42.5t-44 162.5zM344 131h725v608h-725v-608z" />
<glyph unicode="p" horiz-adv-x="1241" d="M201 0v868h733q101 0 145.5 -39t44.5 -129v-194q0 -88 -44.5 -127t-145.5 -39h-569v-340h-164zM365 467h495q55 0 76.5 18.5t21.5 63.5v110q0 45 -21 63.5t-77 18.5h-495v-274z" />
<glyph unicode="q" horiz-adv-x="1413" d="M180 205v457q0 119 45 162.5t168 43.5h627q123 0 168 -43.5t45 -162.5v-457q0 -119 -44.5 -162t-168.5 -43h-86l123 -258h-146l-112 258h-406q-125 0 -169 42.5t-44 162.5zM344 131h397l-108 244l102 43l137 -287h197v608h-725v-608z" />
<glyph unicode="r" horiz-adv-x="1255" d="M201 0v868h698q97 0 139.5 -39.5t42.5 -128.5v-194q0 -88 -42.5 -127t-139.5 -39h-115l383 -340h-219l-346 340h-237v-340h-164zM365 461h462q55 0 74 18t19 70v104q0 48 -20 68t-73 20h-462v-280z" />
<glyph unicode="s" horiz-adv-x="1305" d="M174 205v24l150 31v-129h655v244h-559q-123 0 -167 42.5t-44 162.5v82q0 119 44 162.5t167 43.5h483q121 0 167 -42t46 -148v-21l-149 -32v114h-609v-225h557q122 0 166.5 -42.5t44.5 -162.5v-104q0 -120 -43.5 -162.5t-167.5 -42.5h-528q-124 0 -168.5 42.5t-44.5 162.5 z" />
<glyph unicode="t" horiz-adv-x="1075" d="M45 739v129h985v-129h-412v-739h-163v739h-410z" />
<glyph unicode="u" horiz-adv-x="1366" d="M201 205v663h164v-737h634v737h166v-663q0 -120 -44.5 -162.5t-168.5 -42.5h-538q-124 0 -168.5 43t-44.5 162z" />
<glyph unicode="v" horiz-adv-x="1190" d="M45 868h176l389 -698l373 698h162l-475 -868h-125z" />
<glyph unicode="w" horiz-adv-x="1507" d="M47 868h170l240 -663l256 663h108l250 -663l240 663h147l-332 -868h-120l-244 647l-256 -647h-123z" />
<glyph unicode="x" horiz-adv-x="1214" d="M61 868h222l313 -315l287 315h202l-399 -403l488 -465h-230l-350 352l-315 -352h-211l436 444z" />
<glyph unicode="y" horiz-adv-x="1155" d="M43 868h199l346 -376l330 376h192l-451 -489v-379h-163v379z" />
<glyph unicode="z" horiz-adv-x="1264" d="M147 0v78l656 661h-596v129h856v-69l-662 -668h662v-131h-916z" />
<glyph unicode="{" d="M174 477v109q9 0 23.5 -1t21.5 -1q138 0 195 63t57 217v242q0 223 70 297t266 74h47v-107h-37q-131 0 -177 -49.5t-46 -204.5v-242q0 -168 -43.5 -240t-153.5 -104q110 -31 153.5 -103t43.5 -241v-241q0 -155 45 -204.5t170 -49.5q7 0 22 1t23 1v-107h-47 q-197 0 -266.5 72.5t-69.5 296.5v244q0 154 -57 217t-195 63q-7 0 -21.5 -1t-23.5 -1z" />
<glyph unicode="|" d="M459 -483v2048h108v-2048h-108z" />
<glyph unicode="}" d="M172 -307h39q130 0 175.5 49t45.5 203v241q0 171 43 242t154 102q-111 32 -154 103t-43 241v242q0 157 -45 206.5t-170 49.5q-7 0 -22 -1t-23 -1v107h47q196 0 266 -74t70 -297v-242q0 -154 57 -217t195 -63q7 0 22 1t23 1v-109q-8 0 -23 1t-22 1q-138 0 -195 -63 t-57 -217v-244q0 -223 -69.5 -296t-266.5 -73h-47v107z" />
<glyph unicode="~" horiz-adv-x="1706" d="M178 471v113q106 73 202 109t185 36q104 0 272 -61q11 -4 18 -7q9 -3 31 -11q167 -60 257 -60q85 0 177 38t210 122v-113q-102 -72 -198 -107.5t-189 -35.5q-99 0 -260 57q-20 7 -29 10q-5 2 -16 6q-176 64 -273 64q-83 0 -175 -38t-212 -122z" />
<glyph unicode="&#xa1;" horiz-adv-x="840" d="M307 0l53 627h117l55 -627h-225zM307 887v117q0 34 8.5 43.5t53.5 9.5h102q44 0 51.5 -9.5t7.5 -43.5v-117q0 -35 -8.5 -45.5t-50.5 -10.5h-125q-23 0 -31 11t-8 45z" />
<glyph unicode="&#xa2;" horiz-adv-x="1532" d="M416 166v381q0 96 37.5 129t144.5 33h256l53 168h99l-54 -168h33q92 0 126 -30.5t34 -121.5v-92l-135 -23v142h-97l-147 -459h244v170l135 -33v-133q0 -71 -34.5 -100t-121.5 -29h-262l-68 -207h-98l66 207h-62q-82 0 -115.5 36t-33.5 130zM563 125h105l145 459h-250 v-459z" />
<glyph unicode="&#xa3;" horiz-adv-x="1532" d="M215 -25v148q122 13 169.5 71t47.5 195q0 19 -1.5 42t-4.5 54h-211v121h201q-4 45 -6 84.5t-2 71.5q0 155 72 225t235 70h338q128 0 196 -52.5t68 -152.5v-96l-162 -39v78q0 67 -29.5 93.5t-107.5 26.5h-281q-96 0 -131 -35.5t-35 -129.5q0 -35 1.5 -70.5t5.5 -73.5h292 v-121h-278q0 -7 -1 -23.5t-1 -25.5q0 -47 -9 -101.5t-26 -107.5q152 -49 288.5 -74.5t246.5 -25.5q86 0 119.5 36.5t33.5 129.5v41l150 -29v-61q0 -129 -80 -194.5t-238 -65.5q-114 0 -262.5 27.5t-327.5 82.5q-53 -64 -111 -91.5t-141 -27.5h-18z" />
<glyph unicode="&#xa4;" horiz-adv-x="1241" d="M90 420l205 207q-45 61 -67.5 125.5t-22.5 132.5t22.5 133.5t67.5 126.5l-205 205l66 65l204 -205q60 46 124.5 68t136.5 22t138.5 -22.5t123.5 -67.5l204 205l66 -65l-205 -205q44 -59 66 -125t22 -135t-22 -134t-66 -124l205 -207l-66 -66l-204 205q-59 -45 -125 -67.5 t-137 -22.5t-135 22t-126 68l-204 -205zM297 887q0 -134 96 -230t230 -96q133 0 227 96t94 230q0 133 -94 227t-227 94q-134 0 -230 -94.5t-96 -226.5z" />
<glyph unicode="&#xa5;" horiz-adv-x="1532" d="M164 1057h207l405 -475l389 475h203l-281 -322h248v-100h-336l-151 -170h487v-98h-487v-367h-160v367h-493v98h493l-153 170h-340v100h251z" />
<glyph unicode="&#xa6;" d="M459 -350v758h108v-758h-108zM459 674v758h108v-758h-108z" />
<glyph unicode="&#xa7;" d="M160 508q0 74 46 120.5t136 63.5q-56 37 -82.5 81.5t-26.5 100.5q0 98 75 159t196 61q87 0 166 -31t141 -90l-86 -84q-49 52 -105 78t-118 26q-67 0 -105.5 -31t-38.5 -85q0 -73 232 -171q5 -2 9 -4q155 -66 214 -126t59 -144q0 -68 -50.5 -118t-139.5 -68 q55 -29 87 -81.5t32 -115.5q0 -100 -80.5 -165.5t-204.5 -65.5q-91 0 -181 37t-157 102l86 88q68 -63 131 -93t127 -30q70 0 116 36t46 89q0 93 -169 157q-38 15 -58 23q-172 72 -234.5 133.5t-62.5 147.5zM266 547q0 -38 29.5 -72.5t95.5 -73.5q71 -42 148.5 -68t124.5 -26 q45 0 73.5 23.5t28.5 60.5q0 36 -36 73.5t-112 80.5q-69 39 -140 62.5t-116 23.5q-43 0 -69.5 -23.5t-26.5 -60.5z" />
<glyph unicode="&#xa8;" d="M272 1042v189h160v-189h-160zM592 1042v189h160v-189h-160z" />
<glyph unicode="&#xa9;" horiz-adv-x="1706" d="M121 723q0 145 56.5 279.5t162.5 242.5q101 103 232 157t280 54t283.5 -55.5t238.5 -159.5q102 -102 156.5 -235.5t54.5 -282.5q0 -150 -53.5 -281t-157.5 -233q-107 -106 -242 -162.5t-280 -56.5t-278 55.5t-238 161.5q-105 104 -160 237t-55 279zM201 723 q0 -129 49.5 -247t142.5 -212q94 -93 212 -142.5t247 -49.5q130 0 250.5 50t216.5 144q91 89 138.5 206t47.5 251q0 132 -48.5 251t-139.5 210q-94 94 -213 143t-252 49q-132 0 -249 -48t-208 -140q-94 -96 -144 -215.5t-50 -249.5zM469 727q0 203 107.5 326t283.5 123 q135 0 226.5 -72t103.5 -189h-117q-18 80 -75 124t-142 44q-122 0 -190 -95t-68 -267q0 -166 69 -260t189 -94q89 0 151 50.5t78 137.5h115q-11 -125 -108.5 -205t-241.5 -80q-177 0 -279 122t-102 335z" />
<glyph unicode="&#xaa;" horiz-adv-x="848" d="M39 422l332 520h98l340 -520h-119l-74 121h-395l-74 -121h-108zM266 618h305l-153 248z" />
<glyph unicode="&#xab;" horiz-adv-x="1067" d="M123 434l242 301h143l-234 -301l234 -303h-143zM553 434l244 301h143l-233 -301l233 -303h-143z" />
<glyph unicode="&#xac;" horiz-adv-x="1706" d="M254 758v100h1198v-502h-96v402h-1102z" />
<glyph unicode="&#xad;" horiz-adv-x="676" d="M115 471v150h446v-150h-446z" />
<glyph unicode="&#xae;" horiz-adv-x="1706" d="M121 723q0 144 56.5 279.5t162.5 242.5q101 103 232 157t280 54q152 0 285.5 -55t236.5 -160q102 -102 156.5 -235.5t54.5 -282.5q0 -150 -53.5 -281t-157.5 -233q-107 -106 -242 -162.5t-280 -56.5q-147 0 -279.5 55.5t-236.5 161.5q-105 104 -160 237t-55 279zM201 723 q0 -129 49.5 -247t142.5 -212q94 -93 212 -142.5t247 -49.5q130 0 250.5 50t216.5 144q91 89 138.5 204.5t47.5 250.5q0 134 -48 253t-138 210q-94 93 -213.5 142.5t-253.5 49.5q-130 0 -246.5 -48t-208.5 -140q-95 -97 -145.5 -216.5t-50.5 -248.5zM565 313v844h309 q178 0 263.5 -57t85.5 -176q0 -89 -54 -149t-145 -73l188 -389h-145l-178 371h-197v-371h-127zM692 768h158q134 0 188 33.5t54 113.5q0 83 -57 119.5t-185 36.5h-158v-303z" />
<glyph unicode="&#xaf;" d="M254 1073v125h516v-125h-516z" />
<glyph unicode="&#xb0;" horiz-adv-x="674" d="M59 1174q0 116 81.5 197t197.5 81q115 0 195.5 -81.5t80.5 -196.5t-81.5 -197t-196.5 -82q-117 0 -197 81t-80 198zM129 1174q0 -87 61 -147t148 -60t147 60t60 147q0 86 -60.5 147t-146.5 61t-147.5 -61t-61.5 -147z" />
<glyph unicode="&#xb1;" horiz-adv-x="1706" d="M254 51v99h1198v-99h-1198zM254 723v98h551v348h98v-348h549v-98h-549v-348h-98v348h-551z" />
<glyph unicode="&#xb2;" horiz-adv-x="1012" d="M172 422v39q0 43 19 66.5t63 50.5l473 270v123h-412v-148l-110 27v82q0 72 31 98.5t120 26.5h336q88 0 119 -26.5t31 -98.5v-39q0 -48 -16.5 -73.5t-69.5 -55.5l-451 -254h457v119l110 -33v-49q0 -72 -30.5 -98.5t-120.5 -26.5h-549z" />
<glyph unicode="&#xb3;" horiz-adv-x="1012" d="M172 547v51l111 23v-111h403q38 0 50 10.5t12 44.5v86q0 35 -12.5 46.5t-49.5 11.5h-248v79h221q37 0 49.5 14t12.5 60v37q0 44 -12 58t-50 14h-372v-99l-107 21v39q0 72 31.5 98.5t120.5 26.5h354q88 0 119 -27t31 -98v-58q0 -54 -24 -81t-82 -39q69 -10 99.5 -40 t30.5 -89v-66q0 -78 -34.5 -107.5t-123.5 -29.5h-380q-90 0 -120 26t-30 99z" />
<glyph unicode="&#xb4;" d="M375 979l209 348h178l-281 -348h-106z" />
<glyph unicode="&#xb5;" horiz-adv-x="1110" d="M-111 -426l316 1491h139l-125 -592q-8 -39 -12 -73t-4 -66q0 -117 58 -180.5t167 -63.5q125 0 215 107.5t133 310.5l121 557h139l-164 -770q-12 -55 -17 -85t-5 -48q0 -33 17 -49.5t51 -16.5q7 0 16.5 0.5t19.5 1.5l-20 -110q-19 -5 -41 -8t-45 -3q-70 0 -103.5 36 t-33.5 110v14q-42 -77 -120 -119.5t-179 -42.5q-92 0 -161 40t-108 116l-114 -557h-140z" />
<glyph unicode="&#xb6;" d="M84 1130q0 157 107.5 253t285.5 96h463v-70h-127v-1409h-82v1409h-186v-1409h-84v782q-174 8 -275.5 102.5t-101.5 245.5z" />
<glyph unicode="&#xb7;" horiz-adv-x="766" d="M264 528q0 51 34 85t85 34q50 0 83.5 -34t33.5 -85q0 -48 -35 -83t-82 -35q-48 0 -83.5 35.5t-35.5 82.5z" />
<glyph unicode="&#xb8;" d="M299 -336q76 -17 138.5 -26t107.5 -9q60 0 90.5 20.5t30.5 61.5q0 52 -31.5 75.5t-102.5 23.5q-16 0 -29.5 -0.5t-27.5 -1.5v192h74v-106h22q112 0 169 -45t57 -132q0 -89 -62.5 -135.5t-183.5 -46.5q-45 0 -104.5 10t-147.5 33v86z" />
<glyph unicode="&#xb9;" horiz-adv-x="1010" d="M322 956v64l258 41v-639h-107v534h-151z" />
<glyph unicode="&#xba;" horiz-adv-x="932" d="M119 545v274q0 72 29.5 97.5t111.5 25.5h414q80 0 109.5 -25.5t29.5 -97.5v-274q0 -71 -29 -97t-110 -26h-414q-83 0 -112 25.5t-29 97.5zM227 500h480v366h-480v-366z" />
<glyph unicode="&#xbb;" horiz-adv-x="1067" d="M127 131l233 303l-233 301h143l242 -301l-242 -303h-143zM557 131l234 303l-234 301h145l242 -301l-242 -303h-145z" />
<glyph unicode="&#xbc;" horiz-adv-x="2271" d="M307 965v59l246 37v-596h-102v500h-144zM623 -33l919 1123h105l-920 -1123h-104zM1432 141v74l479 383h127v-383h153v-74h-153v-141h-103v141h-503zM1548 215h387v313z" />
<glyph unicode="&#xbd;" horiz-adv-x="2271" d="M307 965v59l246 37v-596h-102v500h-144zM623 -33l919 1123h105l-920 -1123h-104zM1473 0v37q0 42 17 63.5t58 44.5l453 252v115h-393v-137l-105 24v76q0 68 29.5 92.5t114.5 24.5h321q84 0 112.5 -24.5t28.5 -92.5v-37q0 -44 -15.5 -68t-65.5 -51l-431 -237h437v113 l106 -31v-47q0 -68 -30 -92.5t-115 -24.5h-522z" />
<glyph unicode="&#xbe;" horiz-adv-x="2271" d="M164 582v47l106 22v-104h383q37 0 48.5 10t11.5 43v78q0 33 -11.5 43t-48.5 10h-235v76h211q35 0 47 12.5t12 54.5v35q0 42 -11.5 55t-47.5 13h-355v-90l-102 16v37q0 67 29.5 92t113.5 25h338q85 0 114.5 -24.5t29.5 -92.5v-53q0 -52 -23 -77.5t-78 -35.5q67 -8 96 -36 t29 -85v-61q0 -73 -33 -100t-118 -27h-363q-84 0 -113.5 25t-29.5 92zM623 -33l919 1123h105l-920 -1123h-104zM1432 141v74l479 383h127v-383h153v-74h-153v-141h-103v141h-503zM1548 215h387v313z" />
<glyph unicode="&#xbf;" horiz-adv-x="1327" d="M258 199v184l369 186v60h133v-148l-352 -176v-170h544v166l144 -27v-57q0 -109 -51.5 -163t-155.5 -54h-393q-120 0 -179 49.5t-59 149.5zM584 887v117q0 34 8 43.5t53 9.5h103q44 0 52.5 -9.5t8.5 -43.5v-117q0 -35 -9.5 -45.5t-51.5 -10.5h-103h-22q-22 0 -30.5 11.5 t-8.5 44.5z" />
<glyph unicode="&#xc0;" horiz-adv-x="1489" d="M68 0l577 1057h189l587 -1057h-194l-135 260h-715l-135 -260h-174zM451 395h569l-285 541zM495 1517h178l209 -348h-106z" />
<glyph unicode="&#xc1;" horiz-adv-x="1489" d="M68 0l577 1057h189l587 -1057h-194l-135 260h-715l-135 -260h-174zM451 395h569l-285 541zM608 1169l209 348h178l-281 -348h-106z" />
<glyph unicode="&#xc2;" horiz-adv-x="1489" d="M68 0l577 1057h189l587 -1057h-194l-135 260h-715l-135 -260h-174zM451 395h569l-285 541zM458 1169l197 348h178l197 -348h-107l-178 244l-180 -244h-107z" />
<glyph unicode="&#xc3;" horiz-adv-x="1489" d="M68 0l577 1057h189l587 -1057h-194l-135 260h-715l-135 -260h-174zM451 395h569l-285 541zM454 1226q21 91 72.5 139t126.5 48q17 0 32 -2t27 -7l78 -28q16 -5 32 -7.5t29 -2.5q36 0 60 18t37 53h88q-24 -93 -75.5 -142.5t-123.5 -49.5q-17 0 -32.5 2.5t-32.5 7.5l-80 27 q-12 4 -26 6t-27 2q-36 0 -59 -15t-38 -49h-88z" />
<glyph unicode="&#xc4;" horiz-adv-x="1489" d="M68 0l577 1057h189l587 -1057h-194l-135 260h-715l-135 -260h-174zM451 395h569l-285 541zM505 1232v189h160v-189h-160zM825 1232v189h160v-189h-160z" />
<glyph unicode="&#xc5;" horiz-adv-x="1489" d="M68 0l577 1057h189l587 -1057h-194l-135 260h-715l-135 -260h-174zM451 395h569l-285 541zM492 1372q0 104 71.5 176t175.5 72t176 -72t72 -176t-71.5 -176t-176.5 -72q-104 0 -175.5 72t-71.5 176zM596 1370q0 -59 41.5 -100t101.5 -41t101 40.5t41 100.5t-41 101.5 t-101 41.5t-101.5 -41.5t-41.5 -101.5z" />
<glyph unicode="&#xc6;" horiz-adv-x="2015" d="M0 0l829 1057h1014v-142h-669v-294h487v-140h-487v-336h679v-145h-845v293h-586l-223 -293h-199zM524 428h484v490h-103z" />
<glyph unicode="&#xc7;" horiz-adv-x="1536" d="M260 250v557q0 145 52 197.5t196 52.5h592q144 0 195 -52t51 -198v-100l-177 -33v239h-733v-766h733v265l177 -37v-125q0 -146 -51 -198t-195 -52h-592q-144 0 -196 52.5t-52 197.5zM588 -336q76 -17 138.5 -26t107.5 -9q60 0 90.5 20.5t30.5 61.5q0 52 -31.5 75.5 t-102.5 23.5q-16 0 -29.5 -0.5t-27.5 -1.5v192h74v-106h22q112 0 169 -45t57 -132q0 -89 -62.5 -135.5t-183.5 -46.5q-45 0 -104.5 10t-147.5 33v86z" />
<glyph unicode="&#xc8;" horiz-adv-x="1446" d="M274 0v1057h1018v-142h-841v-294h514v-140h-514v-336h849v-145h-1026zM534 1517h178l209 -348h-106z" />
<glyph unicode="&#xc9;" horiz-adv-x="1446" d="M274 0v1057h1018v-142h-841v-294h514v-140h-514v-336h849v-145h-1026zM647 1169l209 348h178l-281 -348h-106z" />
<glyph unicode="&#xca;" horiz-adv-x="1446" d="M274 0v1057h1018v-142h-841v-294h514v-140h-514v-336h849v-145h-1026zM497 1169l197 348h178l197 -348h-107l-178 244l-180 -244h-107z" />
<glyph unicode="&#xcb;" horiz-adv-x="1446" d="M274 0v1057h1018v-142h-841v-294h514v-140h-514v-336h849v-145h-1026zM544 1232v189h160v-189h-160zM864 1232v189h160v-189h-160z" />
<glyph unicode="&#xcc;" horiz-adv-x="725" d="M112 1517h178l209 -348h-106zM274 0v1057h177v-1057h-177z" />
<glyph unicode="&#xcd;" horiz-adv-x="725" d="M225 1169l209 348h178l-281 -348h-106zM274 0v1057h177v-1057h-177z" />
<glyph unicode="&#xce;" horiz-adv-x="725" d="M75 1169l197 348h178l197 -348h-107l-178 244l-180 -244h-107zM274 0v1057h177v-1057h-177z" />
<glyph unicode="&#xcf;" horiz-adv-x="725" d="M122 1232v189h160v-189h-160zM274 0v1057h177v-1057h-177zM442 1232v189h160v-189h-160z" />
<glyph unicode="&#xd0;" horiz-adv-x="1655" d="M70 489v117h204v451h582q146 0 242.5 -19.5t163.5 -62.5q102 -67 160.5 -184t58.5 -256q0 -148 -57.5 -266.5t-161.5 -186.5q-65 -42 -162 -62t-244 -20h-582v489h-204zM451 147h380q257 0 363 90t106 298q0 201 -108 289.5t-361 88.5h-380v-307h387v-117h-387v-342z" />
<glyph unicode="&#xd1;" horiz-adv-x="1716" d="M274 0v1057h111l791 -707q27 -24 57.5 -58t62.5 -75q-8 51 -12 106.5t-4 153.5v580h162v-1057h-99l-812 735q-6 5 -18 16q-60 54 -89 103q6 -48 9 -102.5t3 -128.5v-623h-162zM567 1226q21 91 72.5 139t126.5 48q17 0 32 -2t27 -7l78 -28q16 -5 32 -7.5t29 -2.5 q36 0 60 18t37 53h88q-24 -93 -75.5 -142.5t-123.5 -49.5q-17 0 -32.5 2.5t-32.5 7.5l-80 27q-12 4 -26 6t-27 2q-36 0 -59 -15t-38 -49h-88z" />
<glyph unicode="&#xd2;" horiz-adv-x="1747" d="M260 250v557q0 144 51.5 197t196.5 53h731q143 0 194.5 -52.5t51.5 -197.5v-557q0 -146 -51.5 -198t-194.5 -52h-731q-145 0 -196.5 53t-51.5 197zM436 147h875v766h-875v-766zM624 1517h178l209 -348h-106z" />
<glyph unicode="&#xd3;" horiz-adv-x="1747" d="M260 250v557q0 144 51.5 197t196.5 53h731q143 0 194.5 -52.5t51.5 -197.5v-557q0 -146 -51.5 -198t-194.5 -52h-731q-145 0 -196.5 53t-51.5 197zM436 147h875v766h-875v-766zM737 1169l209 348h178l-281 -348h-106z" />
<glyph unicode="&#xd4;" horiz-adv-x="1747" d="M260 250v557q0 144 51.5 197t196.5 53h731q143 0 194.5 -52.5t51.5 -197.5v-557q0 -146 -51.5 -198t-194.5 -52h-731q-145 0 -196.5 53t-51.5 197zM436 147h875v766h-875v-766zM587 1169l197 348h178l197 -348h-107l-178 244l-180 -244h-107z" />
<glyph unicode="&#xd5;" horiz-adv-x="1747" d="M260 250v557q0 144 51.5 197t196.5 53h731q143 0 194.5 -52.5t51.5 -197.5v-557q0 -146 -51.5 -198t-194.5 -52h-731q-145 0 -196.5 53t-51.5 197zM436 147h875v766h-875v-766zM583 1226q21 91 72.5 139t126.5 48q17 0 32 -2t27 -7l78 -28q16 -5 32 -7.5t29 -2.5 q36 0 60 18t37 53h88q-24 -93 -75.5 -142.5t-123.5 -49.5q-17 0 -32.5 2.5t-32.5 7.5l-80 27q-12 4 -26 6t-27 2q-36 0 -59 -15t-38 -49h-88z" />
<glyph unicode="&#xd6;" horiz-adv-x="1747" d="M260 250v557q0 144 51.5 197t196.5 53h731q143 0 194.5 -52.5t51.5 -197.5v-557q0 -146 -51.5 -198t-194.5 -52h-731q-145 0 -196.5 53t-51.5 197zM436 147h875v766h-875v-766zM634 1232v189h160v-189h-160zM954 1232v189h160v-189h-160z" />
<glyph unicode="&#xd7;" horiz-adv-x="1706" d="M305 129l481 481l-481 482l70 69l481 -481l481 481l70 -69l-481 -482l481 -481l-70 -70l-481 482l-481 -482z" />
<glyph unicode="&#xd8;" horiz-adv-x="1747" d="M260 250v557q0 144 51.5 197t196.5 53h631l170 262h157l-171 -264q104 -4 147 -59t43 -189v-557q0 -146 -51.5 -198t-194.5 -52h-631l-170 -262h-155l172 266q-105 0 -150 56.5t-45 189.5zM436 147h113l498 766h-611v-766zM696 147h615v766h-115z" />
<glyph unicode="&#xd9;" horiz-adv-x="1671" d="M274 250v807h177v-910h770v910h174v-807q0 -146 -51.5 -198t-194.5 -52h-627q-144 0 -196 53t-52 197zM586 1517h178l209 -348h-106z" />
<glyph unicode="&#xda;" horiz-adv-x="1671" d="M274 250v807h177v-910h770v910h174v-807q0 -146 -51.5 -198t-194.5 -52h-627q-144 0 -196 53t-52 197zM699 1169l209 348h178l-281 -348h-106z" />
<glyph unicode="&#xdb;" horiz-adv-x="1671" d="M274 250v807h177v-910h770v910h174v-807q0 -146 -51.5 -198t-194.5 -52h-627q-144 0 -196 53t-52 197zM549 1169l197 348h178l197 -348h-107l-178 244l-180 -244h-107z" />
<glyph unicode="&#xdc;" horiz-adv-x="1671" d="M274 250v807h177v-910h770v910h174v-807q0 -146 -51.5 -198t-194.5 -52h-627q-144 0 -196 53t-52 197zM596 1232v189h160v-189h-160zM916 1232v189h160v-189h-160z" />
<glyph unicode="&#xdd;" horiz-adv-x="1374" d="M66 1057h219l413 -471l396 471h215l-531 -592v-465h-176v461zM551 1169l209 348h178l-281 -348h-106z" />
<glyph unicode="&#xde;" horiz-adv-x="1507" d="M274 0v1057h177v-187h675q117 0 170.5 -48.5t53.5 -155.5v-236q0 -108 -52.5 -156.5t-171.5 -48.5h-675v-225h-177zM451 365h606q65 0 89.5 24.5t24.5 85.5v146q0 61 -25 86.5t-89 25.5h-606v-368z" />
<glyph unicode="&#xdf;" horiz-adv-x="2609" d="M174 205v24l150 31v-129h655v244h-559q-123 0 -167 42.5t-44 162.5v82q0 119 44 162.5t167 43.5h483q121 0 167 -42t46 -148v-21l-149 -32v114h-609v-225h557q122 0 166.5 -42.5t44.5 -162.5v-104q0 -120 -43.5 -162.5t-167.5 -42.5h-528q-124 0 -168.5 42.5t-44.5 162.5 zM1479 205v24l150 31v-129h655v244h-559q-123 0 -167 42.5t-44 162.5v82q0 119 44 162.5t167 43.5h483q121 0 167 -42t46 -148v-21l-149 -32v114h-609v-225h557q122 0 166.5 -42.5t44.5 -162.5v-104q0 -120 -43.5 -162.5t-167.5 -42.5h-528q-124 0 -168.5 42.5t-44.5 162.5z " />
<glyph unicode="&#xe0;" horiz-adv-x="1284" d="M59 0l502 868h150l514 -868h-178l-113 203h-600l-111 -203h-164zM393 1327h178l209 -348h-106zM403 328h461l-231 413z" />
<glyph unicode="&#xe1;" horiz-adv-x="1284" d="M59 0l502 868h150l514 -868h-178l-113 203h-600l-111 -203h-164zM403 328h461l-231 413zM506 979l209 348h178l-281 -348h-106z" />
<glyph unicode="&#xe2;" horiz-adv-x="1284" d="M59 0l502 868h150l514 -868h-178l-113 203h-600l-111 -203h-164zM356 979l197 348h178l197 -348h-107l-178 244l-180 -244h-107zM403 328h461l-231 413z" />
<glyph unicode="&#xe3;" horiz-adv-x="1284" d="M59 0l502 868h150l514 -868h-178l-113 203h-600l-111 -203h-164zM352 1036q21 91 72.5 139t126.5 48q17 0 32 -2t27 -7l78 -28q16 -5 32 -7.5t29 -2.5q36 0 60 18t37 53h88q-24 -93 -75.5 -142.5t-123.5 -49.5q-17 0 -32.5 2.5t-32.5 7.5l-80 27q-12 4 -26 6t-27 2 q-36 0 -59 -15t-38 -49h-88zM403 328h461l-231 413z" />
<glyph unicode="&#xe4;" horiz-adv-x="1284" d="M59 0l502 868h150l514 -868h-178l-113 203h-600l-111 -203h-164zM403 328h461l-231 413zM403 1042v189h160v-189h-160zM723 1042v189h160v-189h-160z" />
<glyph unicode="&#xe5;" horiz-adv-x="1284" d="M59 0l502 868h150l514 -868h-178l-113 203h-600l-111 -203h-164zM395 1208q0 103 72 174.5t176 71.5t176 -71.5t72 -174.5q0 -104 -72 -175.5t-176 -71.5t-176 71.5t-72 175.5zM403 328h461l-231 413zM502 1206q0 -60 40.5 -101.5t100.5 -41.5t101.5 41.5t41.5 101.5 t-41.5 102t-101.5 42t-100.5 -41.5t-40.5 -102.5z" />
<glyph unicode="&#xe6;" horiz-adv-x="1700" d="M0 0l715 868h870v-129h-571v-223h413v-129h-413v-256h579v-131h-729v236h-481l-182 -236h-201zM481 362h383v381h-78z" />
<glyph unicode="&#xe7;" horiz-adv-x="1262" d="M180 205v457q0 121 44 163.5t167 42.5h510q124 0 168.5 -43.5t44.5 -162.5v-82l-164 -27v186h-606v-608h606v207l164 -31v-102q0 -119 -44.5 -162t-168.5 -43h-510q-124 0 -167.5 41.5t-43.5 163.5zM428 -336q76 -17 138.5 -26t107.5 -9q60 0 90.5 20.5t30.5 61.5 q0 52 -31.5 75.5t-102.5 23.5q-16 0 -29.5 -0.5t-27.5 -1.5v192h74v-106h22q112 0 169 -45t57 -132q0 -89 -62.5 -135.5t-183.5 -46.5q-45 0 -104.5 10t-147.5 33v86z" />
<glyph unicode="&#xe8;" horiz-adv-x="1190" d="M201 0v868h874v-129h-710v-223h428v-129h-428v-260h718v-127h-882zM403 1327h178l209 -348h-106z" />
<glyph unicode="&#xe9;" horiz-adv-x="1190" d="M201 0v868h874v-129h-710v-223h428v-129h-428v-260h718v-127h-882zM516 979l209 348h178l-281 -348h-106z" />
<glyph unicode="&#xea;" horiz-adv-x="1190" d="M201 0v868h874v-129h-710v-223h428v-129h-428v-260h718v-127h-882zM366 979l197 348h178l197 -348h-107l-178 244l-180 -244h-107z" />
<glyph unicode="&#xeb;" horiz-adv-x="1190" d="M201 0v868h874v-129h-710v-223h428v-129h-428v-260h718v-127h-882zM413 1042v189h160v-189h-160zM733 1042v189h160v-189h-160z" />
<glyph unicode="&#xec;" horiz-adv-x="557" d="M29 1327h178l209 -348h-106zM197 0v866h163v-866h-163z" />
<glyph unicode="&#xed;" horiz-adv-x="557" d="M142 979l209 348h178l-281 -348h-106zM197 0v866h163v-866h-163z" />
<glyph unicode="&#xee;" horiz-adv-x="557" d="M-8 979l197 348h178l197 -348h-107l-178 244l-180 -244h-107zM197 0v866h163v-866h-163z" />
<glyph unicode="&#xef;" horiz-adv-x="557" d="M39 1042v189h160v-189h-160zM197 0v866h163v-866h-163zM359 1042v189h160v-189h-160z" />
<glyph unicode="&#xf0;" horiz-adv-x="1493" d="M94 395v121h174v352h500q124 0 208.5 -16.5t139.5 -50.5q89 -56 139 -152.5t50 -212.5q0 -219 -133 -327.5t-404 -108.5h-500v395h-174zM432 131h318q212 0 301.5 71.5t89.5 235.5q0 160 -90.5 230.5t-300.5 70.5h-318v-223h342v-121h-342v-264z" />
<glyph unicode="&#xf1;" horiz-adv-x="1405" d="M201 0v868h125l637 -567q28 -24 53.5 -53t50.5 -66q-7 39 -10.5 79t-3.5 83v524h151v-868h-112l-650 575q-34 32 -58.5 60.5t-43.5 58.5q6 -38 9 -77t3 -78v-539h-151zM411 1036q21 91 72.5 139t126.5 48q17 0 32 -2t27 -7l78 -28q16 -5 32 -7.5t29 -2.5q36 0 60 18 t37 53h88q-24 -93 -75.5 -142.5t-123.5 -49.5q-17 0 -32.5 2.5t-32.5 7.5l-80 27q-12 4 -26 6t-27 2q-36 0 -59 -15t-38 -49h-88z" />
<glyph unicode="&#xf2;" horiz-adv-x="1413" d="M180 205v457q0 119 45 162.5t168 43.5h627q123 0 168 -43.5t45 -162.5v-457q0 -119 -44.5 -162t-168.5 -43h-627q-125 0 -169 42.5t-44 162.5zM344 131h725v608h-725v-608zM457 1327h178l209 -348h-106z" />
<glyph unicode="&#xf3;" horiz-adv-x="1413" d="M180 205v457q0 119 45 162.5t168 43.5h627q123 0 168 -43.5t45 -162.5v-457q0 -119 -44.5 -162t-168.5 -43h-627q-125 0 -169 42.5t-44 162.5zM344 131h725v608h-725v-608zM570 979l209 348h178l-281 -348h-106z" />
<glyph unicode="&#xf4;" horiz-adv-x="1413" d="M180 205v457q0 119 45 162.5t168 43.5h627q123 0 168 -43.5t45 -162.5v-457q0 -119 -44.5 -162t-168.5 -43h-627q-125 0 -169 42.5t-44 162.5zM344 131h725v608h-725v-608zM420 979l197 348h178l197 -348h-107l-178 244l-180 -244h-107z" />
<glyph unicode="&#xf5;" horiz-adv-x="1413" d="M180 205v457q0 119 45 162.5t168 43.5h627q123 0 168 -43.5t45 -162.5v-457q0 -119 -44.5 -162t-168.5 -43h-627q-125 0 -169 42.5t-44 162.5zM344 131h725v608h-725v-608zM416 1036q21 91 72.5 139t126.5 48q17 0 32 -2t27 -7l78 -28q16 -5 32 -7.5t29 -2.5q36 0 60 18 t37 53h88q-24 -93 -75.5 -142.5t-123.5 -49.5q-17 0 -32.5 2.5t-32.5 7.5l-80 27q-12 4 -26 6t-27 2q-36 0 -59 -15t-38 -49h-88z" />
<glyph unicode="&#xf6;" horiz-adv-x="1413" d="M180 205v457q0 119 45 162.5t168 43.5h627q123 0 168 -43.5t45 -162.5v-457q0 -119 -44.5 -162t-168.5 -43h-627q-125 0 -169 42.5t-44 162.5zM344 131h725v608h-725v-608zM467 1042v189h160v-189h-160zM787 1042v189h160v-189h-160z" />
<glyph unicode="&#xf7;" horiz-adv-x="1706" d="M254 561v98h1198v-98h-1198zM748 258q0 44 31 75.5t75 31.5q45 0 76 -31t31 -76q0 -44 -31 -75t-76 -31t-75.5 31t-30.5 75zM748 963q0 44 31.5 76t74.5 32q44 0 75.5 -32t31.5 -76q0 -45 -31 -76t-76 -31t-75.5 30.5t-30.5 76.5z" />
<glyph unicode="&#xf8;" horiz-adv-x="1413" d="M180 205v457q0 119 45 162.5t168 43.5h561l154 213h125l-156 -213q87 -11 121.5 -55.5t34.5 -150.5v-457q0 -119 -44.5 -162t-168.5 -43h-563l-152 -215h-125l150 215q-87 15 -118.5 57.5t-31.5 147.5zM344 131h84l440 608h-524v-608zM545 131h524v608h-88z" />
<glyph unicode="&#xf9;" horiz-adv-x="1366" d="M201 205v663h164v-737h634v737h166v-663q0 -120 -44.5 -162.5t-168.5 -42.5h-538q-124 0 -168.5 43t-44.5 162zM434 1327h178l209 -348h-106z" />
<glyph unicode="&#xfa;" horiz-adv-x="1366" d="M201 205v663h164v-737h634v737h166v-663q0 -120 -44.5 -162.5t-168.5 -42.5h-538q-124 0 -168.5 43t-44.5 162zM547 979l209 348h178l-281 -348h-106z" />
<glyph unicode="&#xfb;" horiz-adv-x="1366" d="M201 205v663h164v-737h634v737h166v-663q0 -120 -44.5 -162.5t-168.5 -42.5h-538q-124 0 -168.5 43t-44.5 162zM397 979l197 348h178l197 -348h-107l-178 244l-180 -244h-107z" />
<glyph unicode="&#xfc;" horiz-adv-x="1366" d="M201 205v663h164v-737h634v737h166v-663q0 -120 -44.5 -162.5t-168.5 -42.5h-538q-124 0 -168.5 43t-44.5 162zM444 1042v189h160v-189h-160zM764 1042v189h160v-189h-160z" />
<glyph unicode="&#xfd;" horiz-adv-x="1155" d="M43 868h199l346 -376l330 376h192l-451 -489v-379h-163v379zM441 979l209 348h178l-281 -348h-106z" />
<glyph unicode="&#xfe;" horiz-adv-x="1241" d="M201 0v868h164v-151h569q101 0 145.5 -40t44.5 -128v-193q0 -88 -44.5 -128t-145.5 -40h-569v-188h-164zM365 317h495q55 0 76.5 19t21.5 63v109q0 45 -21 63.5t-77 18.5h-495v-273z" />
<glyph unicode="&#xff;" horiz-adv-x="1155" d="M43 868h199l346 -376l330 376h192l-451 -489v-379h-163v379zM338 1042v189h160v-189h-160zM658 1042v189h160v-189h-160z" />
<glyph unicode="&#x152;" horiz-adv-x="2144" d="M260 250v557q0 145 52 197.5t196 52.5h1466v-142h-671v-294h489v-140h-489v-336h682v-145h-1477q-144 0 -196 52.5t-52 197.5zM436 145h697v770h-697v-770z" />
<glyph unicode="&#x153;" horiz-adv-x="1767" d="M180 207v457q0 118 44.5 161t168.5 43h1262v-129h-576v-223h418v-129h-418v-256h582v-131h-1268q-121 0 -167 44.5t-46 162.5zM344 131h580v608h-580v-608z" />
<glyph unicode="&#x178;" horiz-adv-x="1374" d="M66 1057h219l413 -471l396 471h215l-531 -592v-465h-176v461zM448 1232v189h160v-189h-160zM768 1232v189h160v-189h-160z" />
<glyph unicode="&#x2c6;" d="M225 979l197 348h178l197 -348h-107l-178 244l-180 -244h-107z" />
<glyph unicode="&#x2dc;" d="M221 1036q21 91 72.5 139t126.5 48q17 0 32 -2t27 -7l78 -28q16 -5 32 -7.5t29 -2.5q36 0 60 18t37 53h88q-24 -93 -75.5 -142.5t-123.5 -49.5q-17 0 -32.5 2.5t-32.5 7.5l-80 27q-12 4 -26 6t-27 2q-36 0 -59 -15t-38 -49h-88z" />
<glyph unicode="&#x2000;" horiz-adv-x="810" />
<glyph unicode="&#x2001;" horiz-adv-x="1620" />
<glyph unicode="&#x2002;" horiz-adv-x="810" />
<glyph unicode="&#x2003;" horiz-adv-x="1620" />
<glyph unicode="&#x2004;" horiz-adv-x="540" />
<glyph unicode="&#x2005;" horiz-adv-x="405" />
<glyph unicode="&#x2006;" horiz-adv-x="270" />
<glyph unicode="&#x2007;" horiz-adv-x="270" />
<glyph unicode="&#x2008;" horiz-adv-x="202" />
<glyph unicode="&#x2009;" horiz-adv-x="324" />
<glyph unicode="&#x200a;" horiz-adv-x="90" />
<glyph unicode="&#x2010;" horiz-adv-x="676" d="M115 471v150h446v-150h-446z" />
<glyph unicode="&#x2011;" horiz-adv-x="676" d="M115 471v150h446v-150h-446z" />
<glyph unicode="&#x2012;" horiz-adv-x="676" d="M115 471v150h446v-150h-446z" />
<glyph unicode="&#x2013;" d="M0 494v102h1024v-102h-1024z" />
<glyph unicode="&#x2014;" horiz-adv-x="2048" d="M0 494v102h2048v-102h-2048z" />
<glyph unicode="&#x2018;" horiz-adv-x="766" d="M268 684v154l142 219h92l-123 -223h53q44 0 53 -10.5t9 -45.5v-94q0 -35 -9.5 -45t-52.5 -10h-102h-23q-22 0 -30.5 11t-8.5 44z" />
<glyph unicode="&#x2019;" horiz-adv-x="766" d="M262 629l121 223h-70q-25 0 -34 11t-9 44v94q0 36 9 46t53 10h102q44 0 53 -10.5t9 -45.5v-153l-144 -219h-90z" />
<glyph unicode="&#x201a;" horiz-adv-x="766" d="M262 -205l121 225h-70q-25 0 -34 11.5t-9 44.5v94q0 35 9 45t53 10h102q44 0 53 -10.5t9 -44.5v-156l-144 -219h-90z" />
<glyph unicode="&#x201c;" horiz-adv-x="1149" d="M270 684v154l142 219h92l-123 -223h53q44 0 53 -10.5t9 -45.5v-94q0 -35 -9.5 -45t-52.5 -10h-102h-25q-21 0 -29 10.5t-8 44.5zM651 684v154l144 219h92l-123 -223h53q43 0 51.5 -10.5t8.5 -45.5v-94q0 -36 -9 -45.5t-51 -9.5h-104h-23q-22 0 -30.5 11t-8.5 44z" />
<glyph unicode="&#x201d;" horiz-adv-x="1149" d="M262 629l121 223h-70q-25 0 -34 11t-9 44v94q0 36 9 46t53 10h102q44 0 53 -10.5t9 -45.5v-153l-144 -219h-90zM645 629l123 223h-72q-25 0 -34 11t-9 44v94q0 35 9.5 45.5t52.5 10.5h104q43 0 51.5 -10t8.5 -46v-153l-142 -219h-92z" />
<glyph unicode="&#x201e;" horiz-adv-x="1149" d="M262 -205l121 225h-70q-25 0 -34 11.5t-9 44.5v94q0 35 9 45t53 10h102q44 0 53 -10.5t9 -44.5v-156l-144 -219h-90zM645 -205l121 225h-72q-24 0 -32.5 10.5t-8.5 45.5v94q0 35 9 45t53 10h102q44 0 53 -10.5t9 -44.5v-156l-144 -219h-90z" />
<glyph unicode="&#x2022;" horiz-adv-x="1208" d="M307 762q0 123 87 209t210 86q122 0 208.5 -86.5t86.5 -208.5t-87.5 -209.5t-209.5 -87.5q-123 0 -209 87t-86 210z" />
<glyph unicode="&#x2026;" horiz-adv-x="2048" d="M229 53v117q0 34 9.5 44.5t52.5 10.5h102q43 0 52.5 -10.5t9.5 -44.5v-117q0 -34 -8.5 -43.5t-53.5 -9.5h-123q-24 0 -32.5 9.5t-8.5 43.5zM911 53v117q0 34 9.5 44.5t52.5 10.5h102q43 0 52.5 -10.5t9.5 -44.5v-117q0 -34 -8.5 -43.5t-53.5 -9.5h-123q-24 0 -32.5 9.5 t-8.5 43.5zM1595 53v117q0 34 9.5 44.5t52.5 10.5h102q43 0 52.5 -10.5t9.5 -44.5v-117q0 -34 -8.5 -43.5t-53.5 -9.5h-123q-24 0 -32.5 9.5t-8.5 43.5z" />
<glyph unicode="&#x202f;" horiz-adv-x="324" />
<glyph unicode="&#x2039;" horiz-adv-x="635" d="M123 434l242 301h143l-234 -301l234 -303h-143z" />
<glyph unicode="&#x203a;" horiz-adv-x="635" d="M127 131l233 303l-233 301h143l242 -301l-242 -303h-143z" />
<glyph unicode="&#x205f;" horiz-adv-x="405" />
<glyph unicode="&#x2122;" horiz-adv-x="1706" d="M264 1397v57h430v-57h-172v-473h-82v473h-176zM821 924v530h117l166 -422l156 422h116v-530h-71v467l-177 -467h-49l-186 467v-467h-72z" />
<glyph unicode="&#x25fc;" horiz-adv-x="870" d="M0 0v870h870v-870h-870z" />
</font>
</defs>
</svg>
